# xmcd
#
# Track frame offsets: 
#        150
#        65522
#        78332
#        93812
#        106967
#        120257
#        135372
#        148927
#        160557
#
# Disc length: 2325 seconds
#
# Revision: 0
# Processed by: cddbd v1.5.2PL0 Copyright (c) Steve Scherf et al.
# Submitted via: ExactAudioCopy v1.1
#
DISCID=67091309
DTITLE=Jimmie Rodgers - Chuck Dawg Mix
DYEAR=1900
DGENRE=Country
TTITLE0=Merle Haggard - Blue Yodel No. 9 - Dealing with the Devil - Si
TTITLE0=ng Me Back Home
TTITLE1=Jimmie the Kid
TTITLE2=Blue Yodel No. 12
TTITLE3=Frankie and Johnny
TTITLE4=Miss the Mississipi and You
TTITLE5=Blue Yodel No. 2
TTITLE6=Sleep, Baby, Sleep
TTITLE7=Home Call
TTITLE8=My Old Pal
EXTD=
EXTT0=
EXTT1=
EXTT2=
EXTT3=
EXTT4=
EXTT5=
EXTT6=
EXTT7=
EXTT8=
PLAYORDER=
